<svg xmlns="http://www.w3.org/2000/svg" xmlns:xlink="http://www.w3.org/1999/xlink" width="500" zoomAndPan="magnify" viewBox="0 0 375 374.999991" height="500" preserveAspectRatio="xMidYMid meet" version="1.0"><defs><g/><clipPath id="078b89faf8"><path d="M 68.722656 68.566406 L 306.59375 68.566406 L 306.59375 306.433594 L 68.722656 306.433594 Z M 68.722656 68.566406 " clip-rule="nonzero"/></clipPath><clipPath id="0f21808f96"><path d="M 187.65625 68.566406 C 121.972656 68.566406 68.722656 121.8125 68.722656 187.5 C 68.722656 253.1875 121.972656 306.433594 187.65625 306.433594 C 253.34375 306.433594 306.59375 253.1875 306.59375 187.5 C 306.59375 121.8125 253.34375 68.566406 187.65625 68.566406 Z M 187.65625 68.566406 " clip-rule="nonzero"/></clipPath><clipPath id="dae146837b"><path d="M 68.722656 68.566406 L 306.472656 68.566406 L 306.472656 306.316406 L 68.722656 306.316406 Z M 68.722656 68.566406 " clip-rule="nonzero"/></clipPath><clipPath id="8a31898e2a"><path d="M 187.65625 68.566406 C 121.972656 68.566406 68.722656 121.8125 68.722656 187.5 C 68.722656 253.183594 121.972656 306.433594 187.65625 306.433594 C 253.339844 306.433594 306.589844 253.183594 306.589844 187.5 C 306.589844 121.8125 253.339844 68.566406 187.65625 68.566406 Z M 187.65625 68.566406 " clip-rule="nonzero"/></clipPath><clipPath id="2555d9c9ee"><path d="M 53.628906 53.472656 L 321.378906 53.472656 L 321.378906 321.222656 L 53.628906 321.222656 Z M 53.628906 53.472656 " clip-rule="nonzero"/></clipPath><clipPath id="d98b36097b"><path d="M 187.65625 53.472656 C 113.636719 53.472656 53.628906 113.476562 53.628906 187.5 C 53.628906 261.519531 113.636719 321.527344 187.65625 321.527344 C 261.675781 321.527344 321.683594 261.519531 321.683594 187.5 C 321.683594 113.476562 261.675781 53.472656 187.65625 53.472656 Z M 187.65625 53.472656 " clip-rule="nonzero"/></clipPath><clipPath id="1c0573f22b"><path d="M 37.65625 168.59375 L 337.34375 168.59375 L 337.34375 231.617188 L 37.65625 231.617188 Z M 37.65625 168.59375 " clip-rule="nonzero"/></clipPath><clipPath id="9f3f553762"><path d="M 112.65625 155.453125 L 262.65625 155.453125 L 262.65625 219.203125 L 112.65625 219.203125 Z M 112.65625 155.453125 " clip-rule="nonzero"/></clipPath></defs><g clip-path="url(#078b89faf8)"><g clip-path="url(#0f21808f96)"><path fill="#f8f7f4" d="M 68.722656 68.566406 L 306.59375 68.566406 L 306.59375 306.433594 L 68.722656 306.433594 Z M 68.722656 68.566406 " fill-opacity="1" fill-rule="nonzero"/></g></g><g clip-path="url(#dae146837b)"><g clip-path="url(#8a31898e2a)"><path stroke-linecap="butt" transform="matrix(0.75, 0, 0, 0.75, 68.722661, 68.56507)" fill="none" stroke-linejoin="miter" d="M 158.578129 0.0017818 C 70.999999 0.0017818 -0.00000604962 70.996578 -0.00000604962 158.579917 C -0.00000604962 246.158048 70.999999 317.158053 158.578129 317.158053 C 246.15626 317.158053 317.156265 246.158048 317.156265 158.579917 C 317.156265 70.996578 246.15626 0.0017818 158.578129 0.0017818 Z M 158.578129 0.0017818 " stroke="#000000" stroke-width="4" stroke-opacity="1" stroke-miterlimit="4"/></g></g><g clip-path="url(#2555d9c9ee)"><g clip-path="url(#d98b36097b)"><path stroke-linecap="butt" transform="matrix(0.75, 0, 0, 0.75, 53.628735, 53.471154)" fill="none" stroke-linejoin="miter" d="M 178.703365 0.00200288 C 80.01065 0.00200288 0.000227829 80.007216 0.000227829 178.70514 C 0.000227829 277.397854 80.01065 357.408276 178.703365 357.408276 C 277.396079 357.408276 357.406501 277.397854 357.406501 178.70514 C 357.406501 80.007216 277.396079 0.00200288 178.703365 0.00200288 Z M 178.703365 0.00200288 " stroke="#000000" stroke-width="8" stroke-opacity="1" stroke-miterlimit="4"/></g></g><g clip-path="url(#1c0573f22b)"><path fill="#f8f7f4" d="M 37.65625 168.59375 L 337.269531 168.59375 L 337.269531 231.617188 L 37.65625 231.617188 Z M 37.65625 168.59375 " fill-opacity="1" fill-rule="nonzero"/></g><g clip-path="url(#9f3f553762)"><path fill="#333333" d="M 213.261719 203.226562 C 213.265625 203.214844 213.269531 203.195312 213.273438 203.179688 C 213.28125 203.183594 213.285156 203.191406 213.292969 203.199219 Z M 211.433594 185.488281 C 211.339844 185.386719 211.234375 185.289062 211.132812 185.199219 C 212.964844 182.476562 214.789062 179.753906 216.632812 177.042969 C 216.902344 176.652344 217.234375 176.058594 217.585938 176.015625 C 221.386719 175.613281 223.019531 172.734375 224.804688 169.402344 C 226.402344 171.738281 227.921875 173.652344 229.089844 175.761719 C 230.265625 177.898438 231.9375 179.078125 234.257812 179.582031 C 235.335938 179.816406 236.417969 180.050781 237.0625 181.195312 C 242.222656 190.359375 249.320312 197.363281 260.109375 200.761719 C 257.320312 201.46875 246.875 197.757812 244.308594 195.460938 C 243.609375 197.589844 242.929688 199.65625 242.25 201.722656 C 242.140625 201.699219 242.027344 201.679688 241.917969 201.660156 C 241.550781 199.082031 241.207031 196.5 240.816406 193.925781 C 240.679688 193.042969 240.921875 191.816406 239.480469 191.789062 C 238.269531 191.761719 236.921875 191.214844 236.046875 192.714844 C 235.539062 193.589844 234.886719 194.371094 234.929688 195.851562 C 232.5 192.542969 234.335938 189.433594 234.15625 186.132812 C 230.882812 185.527344 227.878906 183.039062 223.910156 184.675781 C 224.5625 183.742188 225.207031 182.808594 225.859375 181.878906 C 228.171875 178.609375 228.171875 178.609375 225.632812 175.007812 C 222.792969 176.988281 218.964844 177.828125 218.207031 182.078125 C 217.976562 183.371094 216.710938 183.574219 215.871094 183.957031 C 214.957031 183.785156 215.917969 182.710938 214.800781 182.742188 C 213.472656 183.257812 212.832031 184.851562 211.433594 185.488281 Z M 215.304688 182.875 C 215.996094 182.625 216.402344 182.355469 215.824219 181.597656 C 215.597656 181.976562 215 182.039062 215.304688 182.875 Z M 124.71875 205.375 C 124.628906 205.269531 124.535156 205.175781 124.4375 205.078125 C 127.640625 201.832031 130.847656 198.589844 134.039062 195.335938 C 135.183594 194.167969 136.753906 194.425781 138.125 194.238281 C 139.601562 194.03125 140.621094 193.4375 141.558594 192.34375 C 143.320312 190.285156 145.1875 188.320312 147.082031 186.234375 C 149.949219 188.515625 152.15625 191.3125 155.285156 193.453125 C 156.882812 191.554688 158.539062 189.742188 160.019531 187.792969 C 161.675781 185.609375 163.671875 184 166.355469 183.304688 C 167.675781 182.964844 168.539062 182.171875 169.207031 180.964844 C 170.59375 178.445312 172.191406 176.035156 173.59375 173.519531 C 174.707031 171.523438 175.789062 169.582031 178.832031 169.449219 C 177.101562 166.15625 179.527344 164.640625 181.199219 162.8125 C 183.402344 160.40625 185.628906 158.027344 187.972656 155.5 C 189.300781 158.183594 190.605469 160.570312 191.675781 163.0625 C 193.03125 166.207031 195.09375 168.621094 198.1875 170.132812 C 201.566406 171.777344 203.859375 174.320312 205.394531 177.777344 C 206.910156 181.191406 208.875 184.40625 210.613281 187.714844 C 210.964844 188.378906 211.421875 188.910156 212.089844 189.242188 C 216.457031 191.40625 219.519531 194.96875 222.472656 198.6875 C 225.308594 202.253906 228.265625 205.71875 231.191406 209.222656 C 230.984375 209.222656 230.769531 209.226562 230.5625 209.226562 C 230.296875 209.226562 230.03125 209.21875 229.769531 209.21875 C 228.375 208.097656 226.960938 206.996094 225.707031 205.734375 C 223.402344 203.414062 220.917969 202.011719 217.363281 203.488281 C 217.15625 204.273438 216.894531 205.21875 217.417969 206.378906 C 217.691406 206.980469 217.738281 207.699219 217.597656 208.511719 C 217.28125 208.472656 216.960938 208.4375 216.636719 208.398438 C 215.242188 205.222656 215.511719 201.519531 212.96875 198.8125 C 212.585938 200.464844 213.648438 201.769531 213.273438 203.175781 C 210.910156 201.191406 208.914062 198.8125 206.1875 197.191406 C 204.78125 196.355469 203.519531 195.335938 201.898438 194.890625 C 196.074219 193.296875 191.199219 189.824219 186.039062 186.929688 C 184.871094 186.273438 184.328125 185.011719 183.753906 183.902344 C 182.828125 182.125 181.53125 181.371094 179.519531 181.546875 C 178.289062 181.65625 177.027344 181.460938 175.257812 181.382812 C 178.339844 178.136719 180.9375 175.214844 183.753906 172.523438 C 185.289062 171.054688 187.609375 171.90625 189.554688 171.304688 C 190.359375 167.976562 188.972656 165.492188 186.433594 163.28125 C 184.699219 165.839844 181.773438 167.441406 180.828125 170.601562 C 180.785156 170.730469 180.628906 170.878906 180.492188 170.925781 C 175.613281 172.625 174.34375 177.402344 171.855469 181.089844 C 170.113281 183.675781 168.8125 186.566406 164.394531 186.953125 C 172.6875 191.515625 180.808594 195.265625 185.296875 202.921875 C 184.175781 202.707031 183.054688 202.496094 181.929688 202.292969 C 178.375 199.695312 174.503906 197.59375 170.316406 196.121094 C 169.835938 195.949219 169.214844 196.101562 168.671875 196.199219 C 167.882812 196.34375 167.121094 196.644531 166.332031 196.757812 C 163.433594 197.164062 160.699219 197.828125 158.582031 199.527344 L 155.21875 199.453125 C 153.976562 199.457031 152.746094 199.476562 151.582031 199.523438 C 151.113281 199.535156 150.640625 199.558594 150.171875 199.582031 C 151.476562 198.496094 152.71875 197.296875 153.578125 195.613281 C 151.789062 194.1875 149.949219 192.71875 147.917969 191.101562 C 147.101562 193.492188 147.574219 195.566406 148.742188 198.117188 C 145.339844 197.0625 143.464844 198.523438 141.78125 200.347656 C 140.441406 200.535156 139.144531 200.75 137.890625 201 C 137.804688 200.695312 137.722656 200.390625 137.632812 200.0625 C 136.511719 200.664062 135.457031 201.226562 134.390625 201.800781 C 133.828125 201.949219 133.273438 202.101562 132.730469 202.261719 C 132.636719 201.578125 132.558594 200.949219 132.441406 200.070312 C 129.765625 201.90625 127.242188 203.640625 124.71875 205.375 Z M 195.644531 179.988281 C 200.929688 186.722656 207.207031 191.949219 215.472656 194.855469 C 215.566406 193.9375 215.1875 193.726562 214.847656 193.558594 C 210.703125 191.519531 208.148438 188.003906 205.828125 184.199219 C 203.851562 180.957031 199.683594 179.316406 195.644531 179.988281 Z M 259.332031 205.296875 C 258.15625 206.414062 256.902344 207.433594 255.582031 208.335938 C 252.929688 210.136719 250.054688 211.515625 247.046875 212.476562 C 241.027344 214.40625 234.613281 214.773438 228.3125 214.269531 C 225.15625 214.019531 222.011719 213.53125 218.914062 212.878906 C 217.367188 212.546875 215.832031 212.15625 214.339844 211.730469 L 209.691406 210.277344 L 207.304688 209.53125 C 206.507812 209.28125 205.703125 209.082031 204.902344 208.851562 C 203.296875 208.410156 201.695312 207.953125 200.082031 207.527344 C 198.46875 207.121094 196.84375 206.742188 195.222656 206.347656 C 193.601562 205.960938 191.960938 205.648438 190.332031 205.289062 C 177.25 202.644531 163.773438 201.390625 150.367188 202.394531 C 143.675781 202.933594 137.007812 204.027344 130.570312 205.933594 C 127.363281 206.90625 124.203125 208.035156 121.175781 209.460938 C 119.664062 210.179688 118.179688 210.941406 116.738281 211.78125 C 115.316406 212.640625 113.90625 213.542969 112.652344 214.625 C 114.113281 213.847656 115.617188 213.199219 117.152344 212.632812 C 118.679688 212.050781 120.226562 211.539062 121.792969 211.085938 C 124.917969 210.183594 128.089844 209.472656 131.28125 208.929688 C 137.667969 207.839844 144.125 207.363281 150.578125 207.308594 C 163.496094 207.242188 176.375 208.859375 189.078125 211.40625 C 195.4375 212.652344 201.753906 214.21875 208.019531 215.921875 L 212.84375 217.230469 C 214.53125 217.652344 216.210938 217.96875 217.898438 218.242188 C 221.269531 218.796875 224.679688 219.082031 228.097656 219.125 C 231.511719 219.148438 234.945312 218.914062 238.324219 218.300781 C 241.699219 217.691406 245.03125 216.726562 248.15625 215.292969 C 251.273438 213.859375 254.1875 211.984375 256.652344 209.660156 C 257.886719 208.5 259.015625 207.246094 260.023438 205.917969 C 261.019531 204.574219 261.914062 203.175781 262.65625 201.699219 C 261.617188 202.976562 260.527344 204.195312 259.332031 205.296875 Z M 259.332031 205.296875 " fill-opacity="1" fill-rule="nonzero"/></g><g fill="#000000" fill-opacity="1"><g transform="translate(67.322702, 204.064248)"><g><path d="M 0.03125 -0.03125 L 0.03125 -0.140625 C 0.03125 -0.160156 0.0390625 -0.171875 0.0625 -0.171875 L 0.140625 -0.171875 C 0.253906 -0.179688 0.363281 -0.1875 0.46875 -0.1875 C 0.582031 -0.1875 0.6875 -0.195312 0.78125 -0.21875 C 1 -0.28125 1.109375 -0.4375 1.109375 -0.6875 L 1.109375 -4.78125 C 1.109375 -5.03125 0.957031 -5.191406 0.65625 -5.265625 C 0.5625 -5.285156 0.472656 -5.300781 0.390625 -5.3125 L 0.3125 -5.3125 C 0.289062 -5.3125 0.28125 -5.320312 0.28125 -5.34375 L 0.28125 -5.4375 C 0.28125 -5.457031 0.289062 -5.46875 0.3125 -5.46875 L 4 -5.46875 C 4.039062 -5.46875 4.070312 -5.457031 4.09375 -5.4375 C 4.113281 -5.425781 4.128906 -5.390625 4.140625 -5.328125 L 4.203125 -4.203125 C 4.203125 -4.179688 4.179688 -4.171875 4.140625 -4.171875 C 4.109375 -4.171875 4.082031 -4.179688 4.0625 -4.203125 C 4.039062 -4.222656 4.019531 -4.316406 4 -4.484375 C 3.976562 -4.648438 3.929688 -4.785156 3.859375 -4.890625 C 3.796875 -4.992188 3.6875 -5.0625 3.53125 -5.09375 L 1.90625 -5.09375 C 1.875 -5.09375 1.859375 -5.078125 1.859375 -5.046875 L 1.859375 -3.046875 C 1.859375 -3.015625 1.875 -3 1.90625 -3 L 3.234375 -3 C 3.585938 -3 3.765625 -3.203125 3.765625 -3.609375 C 3.765625 -3.628906 3.773438 -3.640625 3.796875 -3.640625 L 3.890625 -3.640625 C 3.910156 -3.640625 3.921875 -3.628906 3.921875 -3.609375 L 3.921875 -1.953125 C 3.921875 -1.929688 3.910156 -1.921875 3.890625 -1.921875 L 3.796875 -1.921875 C 3.773438 -1.921875 3.765625 -1.929688 3.765625 -1.953125 C 3.765625 -2.328125 3.648438 -2.546875 3.421875 -2.609375 C 3.359375 -2.628906 3.296875 -2.640625 3.234375 -2.640625 L 1.90625 -2.640625 C 1.875 -2.640625 1.859375 -2.625 1.859375 -2.59375 L 1.859375 -0.703125 C 1.859375 -0.515625 1.945312 -0.40625 2.125 -0.375 C 2.175781 -0.375 2.234375 -0.375 2.296875 -0.375 L 3.578125 -0.375 C 3.847656 -0.375 4.054688 -0.488281 4.203125 -0.71875 C 4.304688 -0.882812 4.367188 -1.078125 4.390625 -1.296875 C 4.398438 -1.367188 4.441406 -1.40625 4.515625 -1.40625 C 4.546875 -1.40625 4.5625 -1.390625 4.5625 -1.359375 L 4.4375 -0.046875 C 4.414062 -0.015625 4.394531 0 4.375 0 L 0.0625 0 C 0.0390625 0 0.03125 -0.0078125 0.03125 -0.03125 Z M 0.03125 -0.03125 "/></g></g></g><g fill="#000000" fill-opacity="1"><g transform="translate(72.359593, 204.064248)"><g><path d="M 3.265625 -5.421875 C 3.296875 -5.421875 3.3125 -5.390625 3.3125 -5.328125 L 3.40625 -4.5 C 3.414062 -4.457031 3.421875 -4.425781 3.421875 -4.40625 C 3.421875 -4.394531 3.398438 -4.390625 3.359375 -4.390625 C 3.328125 -4.390625 3.304688 -4.394531 3.296875 -4.40625 C 3.285156 -4.414062 3.273438 -4.429688 3.265625 -4.453125 C 3.253906 -4.472656 3.238281 -4.5 3.21875 -4.53125 C 3.207031 -4.5625 3.191406 -4.59375 3.171875 -4.625 C 3.117188 -4.75 3.035156 -4.867188 2.921875 -4.984375 C 2.640625 -5.253906 2.320312 -5.390625 1.96875 -5.390625 C 1.75 -5.390625 1.539062 -5.316406 1.34375 -5.171875 C 1.15625 -5.035156 1.0625 -4.875 1.0625 -4.6875 C 1.0625 -4.5 1.097656 -4.332031 1.171875 -4.1875 C 1.242188 -4.050781 1.335938 -3.921875 1.453125 -3.796875 C 1.566406 -3.679688 1.695312 -3.570312 1.84375 -3.46875 C 2 -3.363281 2.15625 -3.253906 2.3125 -3.140625 C 2.71875 -2.847656 3.007812 -2.601562 3.1875 -2.40625 C 3.457031 -2.09375 3.601562 -1.738281 3.625 -1.34375 C 3.625 -0.90625 3.453125 -0.550781 3.109375 -0.28125 C 2.773438 -0.0195312 2.390625 0.109375 1.953125 0.109375 C 1.660156 0.109375 1.425781 0.078125 1.25 0.015625 C 1.082031 -0.0351562 0.96875 -0.0703125 0.90625 -0.09375 C 0.84375 -0.125 0.796875 -0.140625 0.765625 -0.140625 C 0.734375 -0.140625 0.71875 -0.140625 0.71875 -0.140625 L 0.515625 -0.109375 C 0.484375 -0.109375 0.46875 -0.132812 0.46875 -0.1875 C 0.382812 -0.820312 0.34375 -1.160156 0.34375 -1.203125 C 0.34375 -1.242188 0.347656 -1.269531 0.359375 -1.28125 C 0.367188 -1.300781 0.382812 -1.3125 0.40625 -1.3125 C 0.476562 -1.3125 0.546875 -1.207031 0.609375 -1 C 0.878906 -0.414062 1.332031 -0.125 1.96875 -0.125 C 2.25 -0.125 2.492188 -0.210938 2.703125 -0.390625 C 2.910156 -0.566406 3.015625 -0.796875 3.015625 -1.078125 C 3.015625 -1.523438 2.742188 -1.941406 2.203125 -2.328125 C 2.054688 -2.441406 1.835938 -2.59375 1.546875 -2.78125 C 1.253906 -2.976562 1.023438 -3.175781 0.859375 -3.375 C 0.597656 -3.664062 0.46875 -3.992188 0.46875 -4.359375 C 0.46875 -4.734375 0.613281 -5.035156 0.90625 -5.265625 C 1.195312 -5.503906 1.53125 -5.625 1.90625 -5.625 C 2.101562 -5.625 2.320312 -5.585938 2.5625 -5.515625 C 2.800781 -5.453125 2.960938 -5.410156 3.046875 -5.390625 Z M 3.265625 -5.421875 "/></g></g></g><g fill="#000000" fill-opacity="1"><g transform="translate(76.473505, 204.064248)"><g><path d="M 1.546875 -0.125 C 1.546875 -0.144531 1.554688 -0.15625 1.578125 -0.15625 L 1.6875 -0.15625 C 1.9375 -0.15625 2.140625 -0.207031 2.296875 -0.3125 C 2.453125 -0.425781 2.53125 -0.554688 2.53125 -0.703125 L 2.53125 -4.984375 C 2.53125 -5.035156 2.519531 -5.066406 2.5 -5.078125 C 2.476562 -5.085938 2.453125 -5.09375 2.421875 -5.09375 L 0.9375 -5.09375 C 0.6875 -5.039062 0.523438 -4.859375 0.453125 -4.546875 C 0.410156 -4.367188 0.382812 -4.253906 0.375 -4.203125 C 0.375 -4.160156 0.363281 -4.140625 0.34375 -4.140625 L 0.265625 -4.140625 C 0.253906 -4.140625 0.25 -4.144531 0.25 -4.15625 L 0.25 -4.28125 L 0.390625 -5.5 C 0.410156 -5.570312 0.4375 -5.609375 0.46875 -5.609375 C 0.5 -5.609375 0.535156 -5.582031 0.578125 -5.53125 C 0.617188 -5.488281 0.703125 -5.46875 0.828125 -5.46875 L 5 -5.46875 C 5.113281 -5.46875 5.179688 -5.476562 5.203125 -5.5 C 5.222656 -5.53125 5.242188 -5.554688 5.265625 -5.578125 C 5.285156 -5.597656 5.3125 -5.609375 5.34375 -5.609375 C 5.375 -5.609375 5.394531 -5.59375 5.40625 -5.5625 C 5.414062 -5.539062 5.425781 -5.519531 5.4375 -5.5 L 5.578125 -4.28125 L 5.578125 -4.15625 C 5.578125 -4.144531 5.566406 -4.140625 5.546875 -4.140625 L 5.484375 -4.140625 C 5.460938 -4.140625 5.445312 -4.160156 5.4375 -4.203125 C 5.394531 -4.460938 5.332031 -4.664062 5.25 -4.8125 C 5.175781 -4.96875 5.054688 -5.0625 4.890625 -5.09375 L 3.40625 -5.09375 C 3.375 -5.09375 3.34375 -5.085938 3.3125 -5.078125 C 3.289062 -5.066406 3.28125 -5.035156 3.28125 -4.984375 L 3.28125 -0.703125 C 3.28125 -0.554688 3.359375 -0.425781 3.515625 -0.3125 C 3.671875 -0.207031 3.875 -0.15625 4.125 -0.15625 L 4.234375 -0.15625 C 4.253906 -0.15625 4.265625 -0.144531 4.265625 -0.125 L 4.265625 -0.03125 C 4.265625 -0.0078125 4.253906 0 4.234375 0 L 1.578125 0 C 1.554688 0 1.546875 -0.0078125 1.546875 -0.03125 Z M 1.546875 -0.125 "/></g></g></g><g fill="#000000" fill-opacity="1"><g transform="translate(82.433374, 204.064248)"><g><path d="M 0.5 -0.390625 C 0.5 -0.523438 0.546875 -0.644531 0.640625 -0.75 C 0.742188 -0.851562 0.863281 -0.90625 1 -0.90625 C 1.144531 -0.90625 1.265625 -0.851562 1.359375 -0.75 C 1.460938 -0.65625 1.515625 -0.535156 1.515625 -0.390625 C 1.515625 -0.242188 1.460938 -0.125 1.359375 -0.03125 C 1.265625 0.0625 1.144531 0.109375 1 0.109375 C 0.863281 0.109375 0.742188 0.0625 0.640625 -0.03125 C 0.546875 -0.132812 0.5 -0.253906 0.5 -0.390625 Z M 0.5 -0.390625 "/></g></g></g><g fill="#000000" fill-opacity="1"><g transform="translate(291.393234, 204.064248)"><g><path d="M 0.5 -3.734375 L 0.40625 -3.71875 C 0.382812 -3.71875 0.375 -3.726562 0.375 -3.75 C 0.375 -3.820312 0.414062 -3.976562 0.5 -4.21875 C 0.582031 -4.46875 0.679688 -4.648438 0.796875 -4.765625 C 1.171875 -5.148438 1.585938 -5.34375 2.046875 -5.34375 C 2.515625 -5.34375 2.890625 -5.195312 3.171875 -4.90625 C 3.460938 -4.613281 3.609375 -4.242188 3.609375 -3.796875 C 3.609375 -3.359375 3.320312 -2.867188 2.75 -2.328125 C 2.570312 -2.160156 2.421875 -2.023438 2.296875 -1.921875 C 2.140625 -1.785156 1.863281 -1.523438 1.46875 -1.140625 C 1.082031 -0.765625 0.890625 -0.554688 0.890625 -0.515625 L 3.0625 -0.515625 C 3.257812 -0.515625 3.394531 -0.570312 3.46875 -0.6875 C 3.507812 -0.75 3.566406 -0.910156 3.640625 -1.171875 L 3.796875 -1.171875 L 3.625 -0.125 C 3.613281 -0.0625 3.582031 -0.0195312 3.53125 0 L 0.3125 0 C 0.300781 0 0.296875 -0.03125 0.296875 -0.09375 C 0.296875 -0.164062 0.351562 -0.269531 0.46875 -0.40625 C 0.59375 -0.539062 0.75 -0.703125 0.9375 -0.890625 C 1.125 -1.078125 1.378906 -1.332031 1.703125 -1.65625 C 2.523438 -2.488281 2.9375 -3.15625 2.9375 -3.65625 C 2.9375 -3.96875 2.820312 -4.25 2.59375 -4.5 C 2.375 -4.75 2.113281 -4.875 1.8125 -4.875 C 1.519531 -4.875 1.257812 -4.773438 1.03125 -4.578125 C 0.800781 -4.378906 0.644531 -4.117188 0.5625 -3.796875 C 0.550781 -3.753906 0.53125 -3.734375 0.5 -3.734375 Z M 0.5 -3.734375 "/></g></g></g><g fill="#000000" fill-opacity="1"><g transform="translate(295.596341, 204.064248)"><g><path d="M 0.296875 -2.6875 C 0.296875 -3.320312 0.472656 -3.921875 0.828125 -4.484375 C 1.179688 -5.054688 1.578125 -5.34375 2.015625 -5.34375 C 2.359375 -5.34375 2.664062 -5.210938 2.9375 -4.953125 C 3.21875 -4.691406 3.425781 -4.347656 3.5625 -3.921875 C 3.695312 -3.492188 3.765625 -3.050781 3.765625 -2.59375 C 3.765625 -1.882812 3.609375 -1.265625 3.296875 -0.734375 C 3.085938 -0.390625 2.832031 -0.144531 2.53125 0 C 2.375 0.0703125 2.210938 0.109375 2.046875 0.109375 C 1.734375 0.109375 1.441406 -0.015625 1.171875 -0.265625 C 0.898438 -0.523438 0.6875 -0.84375 0.53125 -1.21875 C 0.375 -1.601562 0.296875 -1.972656 0.296875 -2.328125 Z M 2.0625 -0.125 C 2.78125 -0.125 3.140625 -0.875 3.140625 -2.375 C 3.140625 -3 3.128906 -3.421875 3.109375 -3.640625 C 3.046875 -4.097656 2.941406 -4.445312 2.796875 -4.6875 C 2.609375 -4.96875 2.34375 -5.109375 2 -5.109375 C 1.34375 -5.109375 0.988281 -4.445312 0.9375 -3.125 C 0.925781 -2.9375 0.921875 -2.707031 0.921875 -2.4375 C 0.921875 -1.726562 0.992188 -1.179688 1.140625 -0.796875 C 1.328125 -0.347656 1.632812 -0.125 2.0625 -0.125 Z M 2.0625 -0.125 "/></g></g></g><g fill="#000000" fill-opacity="1"><g transform="translate(299.799449, 204.064248)"><g><path d="M 0.5 -3.734375 L 0.40625 -3.71875 C 0.382812 -3.71875 0.375 -3.726562 0.375 -3.75 C 0.375 -3.820312 0.414062 -3.976562 0.5 -4.21875 C 0.582031 -4.46875 0.679688 -4.648438 0.796875 -4.765625 C 1.171875 -5.148438 1.585938 -5.34375 2.046875 -5.34375 C 2.515625 -5.34375 2.890625 -5.195312 3.171875 -4.90625 C 3.460938 -4.613281 3.609375 -4.242188 3.609375 -3.796875 C 3.609375 -3.359375 3.320312 -2.867188 2.75 -2.328125 C 2.570312 -2.160156 2.421875 -2.023438 2.296875 -1.921875 C 2.140625 -1.785156 1.863281 -1.523438 1.46875 -1.140625 C 1.082031 -0.765625 0.890625 -0.554688 0.890625 -0.515625 L 3.0625 -0.515625 C 3.257812 -0.515625 3.394531 -0.570312 3.46875 -0.6875 C 3.507812 -0.75 3.566406 -0.910156 3.640625 -1.171875 L 3.796875 -1.171875 L 3.625 -0.125 C 3.613281 -0.0625 3.582031 -0.0195312 3.53125 0 L 0.3125 0 C 0.300781 0 0.296875 -0.03125 0.296875 -0.09375 C 0.296875 -0.164062 0.351562 -0.269531 0.46875 -0.40625 C 0.59375 -0.539062 0.75 -0.703125 0.9375 -0.890625 C 1.125 -1.078125 1.378906 -1.332031 1.703125 -1.65625 C 2.523438 -2.488281 2.9375 -3.15625 2.9375 -3.65625 C 2.9375 -3.96875 2.820312 -4.25 2.59375 -4.5 C 2.375 -4.75 2.113281 -4.875 1.8125 -4.875 C 1.519531 -4.875 1.257812 -4.773438 1.03125 -4.578125 C 0.800781 -4.378906 0.644531 -4.117188 0.5625 -3.796875 C 0.550781 -3.753906 0.53125 -3.734375 0.5 -3.734375 Z M 0.5 -3.734375 "/></g></g></g><g fill="#000000" fill-opacity="1"><g transform="translate(304.002555, 204.064248)"><g><path d="M 0.34375 -1.53125 C 0.28125 -1.53125 0.25 -1.550781 0.25 -1.59375 C 0.25 -1.644531 0.257812 -1.6875 0.28125 -1.71875 L 2.671875 -5.25 C 2.710938 -5.3125 2.757812 -5.34375 2.8125 -5.34375 C 2.863281 -5.34375 2.90625 -5.335938 2.9375 -5.328125 C 2.96875 -5.328125 2.984375 -5.300781 2.984375 -5.25 L 2.984375 -2.0625 C 2.984375 -2.019531 2.988281 -1.992188 3 -1.984375 C 3.007812 -1.972656 3.035156 -1.96875 3.078125 -1.96875 L 3.703125 -1.96875 C 3.734375 -1.96875 3.757812 -1.960938 3.78125 -1.953125 C 3.8125 -1.953125 3.828125 -1.929688 3.828125 -1.890625 L 3.828125 -1.625 C 3.828125 -1.5625 3.800781 -1.53125 3.75 -1.53125 L 3.078125 -1.53125 C 3.023438 -1.53125 2.992188 -1.523438 2.984375 -1.515625 C 2.984375 -1.503906 2.984375 -1.476562 2.984375 -1.4375 L 2.984375 0.0625 C 2.984375 0.113281 2.960938 0.140625 2.921875 0.140625 L 2.5 0.140625 C 2.445312 0.140625 2.421875 0.109375 2.421875 0.046875 L 2.421875 -1.4375 C 2.421875 -1.476562 2.414062 -1.503906 2.40625 -1.515625 C 2.394531 -1.523438 2.363281 -1.53125 2.3125 -1.53125 Z M 2.421875 -4.1875 C 2.421875 -4.289062 2.390625 -4.34375 2.328125 -4.34375 C 2.304688 -4.34375 2.269531 -4.3125 2.21875 -4.25 L 0.71875 -2.03125 C 0.707031 -2.019531 0.703125 -2.003906 0.703125 -1.984375 C 0.703125 -1.972656 0.742188 -1.96875 0.828125 -1.96875 L 2.3125 -1.96875 C 2.363281 -1.96875 2.394531 -1.972656 2.40625 -1.984375 C 2.414062 -2.003906 2.421875 -2.03125 2.421875 -2.0625 Z M 2.421875 -4.1875 "/></g></g></g><g fill="#000000" fill-opacity="1"><g transform="translate(106.608608, 169.217798)"><g><path d="M 0.578125 -1.890625 L -13.40625 -6.21875 L -12.75 -8.296875 L 0.09375 -4.3125 C 0.601562 -5.101562 0.941406 -5.757812 1.109375 -6.28125 L 1.625 -10.3125 L 2.96875 -9.609375 Z M 0.578125 -1.890625 "/></g></g></g><g fill="#000000" fill-opacity="1"><g transform="translate(110.544568, 156.703801)"><g><path d="M 0.09375 -0.1875 L -10.21875 -12.921875 L -10.0625 -13.203125 L 6.28125 -12.1875 L 5.171875 -10.03125 L 0.859375 -10.390625 L -2.15625 -4.53125 L 0.65625 -1.265625 Z M -2.75 -5.234375 L -0.046875 -10.453125 L -7.75 -11.125 Z M -2.75 -5.234375 "/></g></g></g><g fill="#000000" fill-opacity="1"><g transform="translate(118.115071, 142.459858)"><g><path d="M -2.890625 -7.59375 L 2.578125 -3.25 L 1.234375 -1.5625 L -10.234375 -10.65625 L -7.265625 -14.390625 C -6.335938 -15.554688 -5.316406 -16.304688 -4.203125 -16.640625 C -3.097656 -16.984375 -2.117188 -16.816406 -1.265625 -16.140625 C -0.421875 -15.472656 0.0078125 -14.644531 0.03125 -13.65625 C 0.0507812 -12.664062 -0.25 -11.59375 -0.875 -10.4375 L 8.421875 -10.625 L 7.078125 -8.4375 L -1.828125 -8.9375 Z M -3.421875 -8 L -2.53125 -9.125 C -0.882812 -11.207031 -0.878906 -12.898438 -2.515625 -14.203125 C -2.796875 -14.421875 -3.160156 -14.597656 -3.609375 -14.734375 C -4.566406 -15.035156 -5.5 -14.847656 -6.40625 -14.171875 C -7.019531 -13.390625 -7.539062 -12.535156 -7.96875 -11.609375 Z M -3.421875 -8 "/></g></g></g><g fill="#000000" fill-opacity="1"><g transform="translate(128.435584, 129.806752)"><g><path d="M 0.171875 -0.140625 L -4.5625 -15.828125 L -4.3125 -16.046875 L 10.4375 -8.890625 L 8.59375 -7.3125 L 4.75 -9.28125 L -0.265625 -5 L 1.078125 -0.921875 Z M -0.546875 -5.875 L 3.921875 -9.6875 L -2.9375 -13.234375 Z M -0.546875 -5.875 "/></g></g></g><g fill="#000000" fill-opacity="1"><g transform="translate(140.893978, 119.516283)"><g><path d="M 6.078125 -3.046875 L -7.03125 -12.84375 L -4.921875 -14.03125 L 5.203125 -6.015625 L 3.109375 -18.59375 L 4.078125 -19.140625 L 6.375 -3.21875 Z M 6.078125 -3.046875 "/></g></g></g><g fill="#000000" fill-opacity="1"><g transform="translate(154.497219, 112.078131)"><g><path d="M 1.875 -0.65625 L -2.9375 -14.484375 L 5.4375 -17.390625 L 5.71875 -15.9375 L 1.625 -15.21875 C 0.9375 -14.976562 0.222656 -14.597656 -0.515625 -14.078125 L 1.25 -9 L 5.890625 -10.609375 L 6.171875 -9.8125 L 1.53125 -8.203125 L 3.640625 -2.109375 L 9.90625 -5.015625 L 10.1875 -3.546875 Z M 1.875 -0.65625 "/></g></g></g><g fill="#000000" fill-opacity="1"><g transform="translate(168.576682, 107.46704)"><g><path d="M 1.953125 -0.328125 L -0.46875 -14.765625 L 1.671875 -15.125 L 3.890625 -1.859375 C 4.835938 -1.753906 5.578125 -1.742188 6.109375 -1.828125 L 9.9375 -3.1875 L 9.921875 -1.671875 Z M 1.953125 -0.328125 "/></g></g></g><g fill="#000000" fill-opacity="1"><g transform="translate(181.850605, 105.578606)"><g/></g></g><g fill="#000000" fill-opacity="1"><g transform="translate(189.91439, 105.154842)"><g><path d="M 8.65625 1.234375 C 6.382812 0.972656 4.539062 0.140625 3.125 -1.265625 C 1.707031 -2.671875 1.128906 -4.519531 1.390625 -6.8125 C 1.535156 -8.164062 1.921875 -9.335938 2.546875 -10.328125 C 3.179688 -11.328125 3.945312 -12.082031 4.84375 -12.59375 C 6.664062 -13.632812 8.625 -14.039062 10.71875 -13.8125 C 11.9375 -13.675781 13.179688 -13.316406 14.453125 -12.734375 L 14.078125 -11.265625 C 13.410156 -11.628906 12.898438 -11.910156 12.546875 -12.109375 C 11.484375 -12.617188 10.394531 -12.9375 9.28125 -13.0625 C 7.707031 -12.875 6.441406 -12.238281 5.484375 -11.15625 C 4.523438 -10.082031 3.945312 -8.664062 3.75 -6.90625 C 3.507812 -4.75 3.890625 -3.023438 4.890625 -1.734375 C 5.898438 -0.453125 7.328125 0.285156 9.171875 0.484375 C 11.015625 0.691406 12.429688 0.457031 13.421875 -0.21875 L 13.28125 0.984375 C 11.976562 1.347656 10.4375 1.429688 8.65625 1.234375 Z M 8.65625 1.234375 "/></g></g></g><g fill="#000000" fill-opacity="1"><g transform="translate(205.991018, 107.156811)"><g><path d="M 0.203125 0.0625 L 10.984375 -12.28125 L 11.296875 -12.171875 L 13.078125 4.109375 L 10.765625 3.375 L 10.375 -0.90625 L 4.09375 -2.890625 L 1.359375 0.421875 Z M 4.6875 -3.59375 L 10.296875 -1.828125 L 9.640625 -9.53125 Z M 4.6875 -3.59375 "/></g></g></g><g fill="#000000" fill-opacity="1"><g transform="translate(221.258847, 111.85412)"><g><path d="M 10.203125 1.953125 L 20.078125 -5.21875 L 22.03125 -4.078125 L 15.328125 8.984375 L 13.390625 7.84375 L 19.21875 -3.328125 L 19.15625 -3.359375 L 7.984375 4.671875 L 7.71875 4.515625 L 9.109375 -8.671875 L 9.03125 -8.703125 L 2.40625 1.40625 L 1.5625 0.921875 L 9.6875 -11.3125 L 11.453125 -10.265625 Z M 10.203125 1.953125 "/></g></g></g><g fill="#000000" fill-opacity="1"><g transform="translate(239.67244, 123.369599)"><g><path d="M 16.0625 0.0625 C 15.09375 1.101562 13.976562 1.535156 12.71875 1.359375 C 11.457031 1.191406 10.171875 0.503906 8.859375 -0.703125 L 7.46875 -1.984375 L 3.046875 2.8125 L 1.453125 1.34375 L 11.375 -9.421875 L 14.890625 -6.1875 C 15.984375 -5.175781 16.648438 -4.097656 16.890625 -2.953125 C 17.128906 -1.804688 16.851562 -0.800781 16.0625 0.0625 Z M 7.90625 -2.453125 L 9.34375 -1.125 C 9.851562 -0.65625 10.378906 -0.351562 10.921875 -0.21875 C 11.472656 -0.0820312 11.960938 -0.0859375 12.390625 -0.234375 C 13.191406 -0.503906 13.832031 -0.894531 14.3125 -1.40625 C 14.53125 -1.644531 14.738281 -2.003906 14.9375 -2.484375 C 15.332031 -3.441406 15.222656 -4.394531 14.609375 -5.34375 C 13.828125 -6.070312 13.015625 -6.65625 12.171875 -7.09375 Z M 7.90625 -2.453125 "/></g></g></g><g fill="#000000" fill-opacity="1"><g transform="translate(250.167661, 133.580104)"><g><path d="M 13.875 -6.15625 L 2.546875 3.125 L 1.25 1.53125 L 12.578125 -7.75 Z M 13.875 -6.15625 "/></g></g></g><g fill="#000000" fill-opacity="1"><g transform="translate(255.681822, 140.058559)"><g><path d="M 6.40625 11.453125 L 6.21875 11.125 L 11.796875 -3.375 L 11.75 -3.4375 L 1.5 2.5625 L 1 1.71875 L 13.640625 -5.671875 L 14.46875 -4.265625 L 9.546875 8.390625 L 9.59375 8.453125 L 18.78125 3.078125 L 19.265625 3.9375 Z M 6.40625 11.453125 "/></g></g></g><g fill="#000000" fill-opacity="1"><g transform="translate(264.202774, 155.058565)"><g><path d="M 9.5625 8.6875 L 10.25 10.71875 L 4.71875 12.5625 C 3.84375 11.507812 3.117188 10.140625 2.546875 8.453125 C 1.859375 6.398438 1.8125 4.445312 2.40625 2.59375 C 2.707031 1.6875 3.226562 0.863281 3.96875 0.125 C 4.71875 -0.601562 5.628906 -1.144531 6.703125 -1.5 C 7.785156 -1.863281 8.8125 -2.019531 9.78125 -1.96875 C 10.757812 -1.925781 11.625 -1.734375 12.375 -1.390625 C 13.132812 -1.046875 13.835938 -0.578125 14.484375 0.015625 C 15.671875 1.085938 16.53125 2.414062 17.0625 4 C 17.269531 4.625 17.421875 5.316406 17.515625 6.078125 C 17.617188 6.835938 17.65625 7.429688 17.625 7.859375 L 16.171875 8.109375 C 16.328125 5.953125 16.195312 4.253906 15.78125 3.015625 C 14.945312 1.722656 13.820312 0.859375 12.40625 0.421875 C 11 -0.015625 9.476562 0.0390625 7.84375 0.59375 C 5.8125 1.269531 4.414062 2.332031 3.65625 3.78125 C 2.90625 5.238281 2.828125 6.847656 3.421875 8.609375 C 3.660156 9.316406 3.945312 9.929688 4.28125 10.453125 Z M 9.5625 8.6875 "/></g></g></g><g fill="#000000" fill-opacity="1"><g transform="translate(97.91592, 231.704588)"><g><path d="M 0.078125 0.015625 L 0.21875 -0.0625 C 0.238281 -0.0820312 0.253906 -0.0820312 0.265625 -0.0625 L 0.328125 0.046875 C 0.429688 0.179688 0.535156 0.320312 0.640625 0.46875 C 0.742188 0.625 0.847656 0.753906 0.953125 0.859375 C 1.203125 1.078125 1.488281 1.082031 1.8125 0.875 L 7.21875 -2.5 C 7.550781 -2.71875 7.648438 -3.050781 7.515625 -3.5 C 7.460938 -3.632812 7.40625 -3.765625 7.34375 -3.890625 L 7.265625 -4 C 7.253906 -4.019531 7.265625 -4.039062 7.296875 -4.0625 L 7.421875 -4.125 C 7.453125 -4.144531 7.472656 -4.144531 7.484375 -4.125 L 10.546875 0.75 C 10.585938 0.8125 10.601562 0.863281 10.59375 0.90625 C 10.582031 0.945312 10.539062 0.992188 10.46875 1.046875 L 9.046875 2.078125 C 9.003906 2.097656 8.96875 2.082031 8.9375 2.03125 C 8.90625 1.988281 8.90625 1.941406 8.9375 1.890625 C 8.945312 1.835938 9.046875 1.726562 9.234375 1.5625 C 9.429688 1.40625 9.578125 1.238281 9.671875 1.0625 C 9.765625 0.882812 9.757812 0.675781 9.65625 0.4375 L 8.3125 -1.6875 C 8.289062 -1.726562 8.257812 -1.738281 8.21875 -1.71875 L 5.578125 -0.046875 C 5.535156 -0.0234375 5.523438 0 5.546875 0.03125 L 6.65625 1.8125 C 6.945312 2.269531 7.359375 2.332031 7.890625 2 C 7.921875 1.976562 7.941406 1.976562 7.953125 2 L 8.03125 2.125 C 8.050781 2.144531 8.046875 2.164062 8.015625 2.1875 L 5.828125 3.546875 C 5.804688 3.566406 5.785156 3.566406 5.765625 3.546875 L 5.6875 3.421875 C 5.675781 3.398438 5.679688 3.378906 5.703125 3.359375 C 6.210938 3.046875 6.410156 2.710938 6.296875 2.359375 C 6.265625 2.265625 6.222656 2.175781 6.171875 2.09375 L 5.0625 0.328125 C 5.039062 0.296875 5.007812 0.289062 4.96875 0.3125 L 2.484375 1.875 C 2.234375 2.039062 2.160156 2.25 2.265625 2.5 C 2.296875 2.5625 2.335938 2.632812 2.390625 2.71875 L 3.453125 4.421875 C 3.671875 4.773438 4 4.957031 4.4375 4.96875 C 4.75 4.957031 5.054688 4.878906 5.359375 4.734375 C 5.460938 4.679688 5.546875 4.703125 5.609375 4.796875 C 5.628906 4.828125 5.617188 4.859375 5.578125 4.890625 L 3.734375 5.8125 C 3.679688 5.820312 3.644531 5.8125 3.625 5.78125 L 0.046875 0.078125 C 0.0351562 0.0546875 0.046875 0.0351562 0.078125 0.015625 Z M 0.078125 0.015625 "/></g></g></g><g fill="#000000" fill-opacity="1"><g transform="translate(106.033227, 243.814545)"><g><path d="M 2.015625 1.390625 C 1.816406 1.546875 1.894531 1.816406 2.25 2.203125 C 2.375 2.328125 2.410156 2.410156 2.359375 2.453125 L 2.25 2.546875 C 2.226562 2.566406 2.207031 2.566406 2.1875 2.546875 L 0.046875 0.0625 C 0.0234375 0.0390625 0.0234375 0.0195312 0.046875 0 L 0.15625 -0.09375 C 0.175781 -0.113281 0.195312 -0.113281 0.21875 -0.09375 L 0.375 0.078125 C 0.78125 0.441406 1.410156 0.601562 2.265625 0.5625 C 2.484375 0.550781 2.695312 0.546875 2.90625 0.546875 L 6.046875 0.359375 L 6.640625 -2.59375 C 6.679688 -2.78125 6.722656 -2.96875 6.765625 -3.15625 C 6.941406 -3.8125 6.914062 -4.351562 6.6875 -4.78125 C 6.613281 -4.957031 6.488281 -5.144531 6.3125 -5.34375 C 6.289062 -5.363281 6.296875 -5.390625 6.328125 -5.421875 L 6.4375 -5.515625 C 6.46875 -5.523438 6.492188 -5.519531 6.515625 -5.5 L 9.125 -2.484375 C 9.144531 -2.460938 9.140625 -2.445312 9.109375 -2.4375 L 9 -2.34375 C 8.96875 -2.3125 8.882812 -2.367188 8.75 -2.515625 C 8.625 -2.671875 8.507812 -2.785156 8.40625 -2.859375 C 8.25 -2.972656 8.109375 -2.976562 7.984375 -2.875 C 7.929688 -2.820312 7.882812 -2.738281 7.84375 -2.625 L 7.265625 0.109375 C 7.253906 0.148438 7.25 0.171875 7.25 0.171875 C 7.25 0.179688 7.257812 0.195312 7.28125 0.21875 C 7.300781 0.25 7.375 0.265625 7.5 0.265625 L 10.140625 0.140625 C 10.265625 0.140625 10.367188 0.101562 10.453125 0.03125 C 10.640625 -0.132812 10.535156 -0.445312 10.140625 -0.90625 C 10.117188 -0.925781 10.125 -0.953125 10.15625 -0.984375 L 10.265625 -1.078125 C 10.296875 -1.085938 10.320312 -1.082031 10.34375 -1.0625 L 12.46875 1.390625 C 12.488281 1.421875 12.484375 1.441406 12.453125 1.453125 L 12.34375 1.546875 C 12.3125 1.578125 12.285156 1.578125 12.265625 1.546875 C 11.835938 1.054688 11.144531 0.8125 10.1875 0.8125 L 7.09375 1 C 7.09375 1 7.085938 1.007812 7.078125 1.03125 C 7.078125 1.050781 7.046875 1.171875 6.984375 1.390625 C 6.929688 1.609375 6.757812 2.367188 6.46875 3.671875 C 6.1875 4.972656 6.050781 5.691406 6.0625 5.828125 C 6.050781 6.210938 6.109375 6.507812 6.234375 6.71875 C 6.242188 6.78125 6.265625 6.835938 6.296875 6.890625 C 6.335938 6.941406 6.382812 7.003906 6.4375 7.078125 C 6.5 7.160156 6.503906 7.222656 6.453125 7.265625 C 6.378906 7.328125 6.289062 7.300781 6.1875 7.1875 L 4.015625 4.65625 C 3.992188 4.625 3.992188 4.597656 4.015625 4.578125 L 4.125 4.484375 C 4.15625 4.460938 4.207031 4.5 4.28125 4.59375 C 4.5625 4.925781 4.800781 5.015625 5 4.859375 C 5.039062 4.816406 5.070312 4.753906 5.09375 4.671875 L 5.84375 1.234375 C 5.851562 1.171875 5.84375 1.125 5.8125 1.09375 C 5.789062 1.070312 5.753906 1.066406 5.703125 1.078125 L 2.25 1.265625 C 2.164062 1.273438 2.085938 1.316406 2.015625 1.390625 Z M 2.015625 1.390625 "/></g></g></g><g fill="#000000" fill-opacity="1"><g transform="translate(117.368514, 256.029686)"><g><path d="M 0.46875 0.390625 C 0.4375 0.367188 0.445312 0.328125 0.5 0.265625 L 0.546875 0.21875 C 0.566406 0.195312 0.59375 0.195312 0.625 0.21875 C 0.65625 0.25 0.707031 0.28125 0.78125 0.3125 C 0.851562 0.34375 0.910156 0.363281 0.953125 0.375 C 1.328125 0.570312 1.632812 0.53125 1.875 0.25 L 6.03125 -4.59375 C 6.269531 -4.875 6.375 -5.09375 6.34375 -5.25 C 6.3125 -5.414062 6.15625 -5.617188 5.875 -5.859375 L 5.671875 -6.03125 C 5.597656 -6.09375 5.59375 -6.160156 5.65625 -6.234375 C 5.695312 -6.273438 5.75 -6.28125 5.8125 -6.25 L 5.828125 -6.234375 L 8.46875 -4.109375 L 8.9375 -3.703125 C 9.445312 -3.191406 9.734375 -2.601562 9.796875 -1.9375 C 9.859375 -1.269531 9.671875 -0.679688 9.234375 -0.171875 C 8.804688 0.328125 8.234375 0.628906 7.515625 0.734375 C 7.210938 0.773438 6.910156 0.765625 6.609375 0.703125 C 6.316406 0.648438 6.078125 0.546875 5.890625 0.390625 L 4.5625 -0.859375 L 4.53125 -0.890625 C 4.476562 -0.929688 4.429688 -0.925781 4.390625 -0.875 L 2.78125 1 C 2.632812 1.164062 2.570312 1.328125 2.59375 1.484375 C 2.625 1.648438 2.769531 1.882812 3.03125 2.1875 C 3.050781 2.226562 3.101562 2.296875 3.1875 2.390625 C 3.269531 2.484375 3.320312 2.539062 3.34375 2.5625 C 3.375 2.59375 3.378906 2.617188 3.359375 2.640625 L 3.265625 2.75 C 3.242188 2.769531 3.222656 2.769531 3.203125 2.75 Z M 7.890625 -4.1875 C 7.859375 -4.21875 7.820312 -4.25 7.78125 -4.28125 C 7.738281 -4.320312 7.679688 -4.367188 7.609375 -4.421875 C 7.535156 -4.472656 7.476562 -4.472656 7.4375 -4.421875 L 4.890625 -1.46875 L 4.796875 -1.3125 C 4.753906 -1.238281 4.75 -1.175781 4.78125 -1.125 L 5.25 -0.703125 C 5.738281 -0.285156 6.273438 -0.109375 6.859375 -0.171875 C 7.441406 -0.242188 7.945312 -0.53125 8.375 -1.03125 C 8.8125 -1.53125 9 -2.039062 8.9375 -2.5625 C 8.882812 -3.09375 8.613281 -3.566406 8.125 -3.984375 C 8.082031 -4.023438 8.039062 -4.0625 8 -4.09375 C 7.96875 -4.125 7.929688 -4.15625 7.890625 -4.1875 Z M 7.890625 -4.1875 "/></g></g></g><g fill="#000000" fill-opacity="1"><g transform="translate(128.460267, 264.934624)"><g><path d="M 0.25 0.15625 C 0.21875 0.132812 0.210938 0.109375 0.234375 0.078125 L 0.296875 -0.03125 C 0.316406 -0.0625 0.34375 -0.0664062 0.375 -0.046875 L 0.5 0.03125 C 0.78125 0.21875 1.070312 0.320312 1.375 0.34375 C 1.5 0.351562 1.625 0.320312 1.75 0.25 C 1.875 0.175781 1.984375 0.0703125 2.078125 -0.0625 L 5.53125 -5.4375 C 5.664062 -5.644531 5.632812 -5.894531 5.4375 -6.1875 C 5.289062 -6.382812 5.109375 -6.554688 4.890625 -6.703125 L 4.78125 -6.765625 C 4.757812 -6.785156 4.765625 -6.8125 4.796875 -6.84375 L 4.859375 -6.96875 C 4.878906 -6.988281 4.898438 -6.988281 4.921875 -6.96875 L 8.375 -4.75 C 8.394531 -4.738281 8.394531 -4.722656 8.375 -4.703125 L 8.3125 -4.578125 C 8.28125 -4.546875 8.253906 -4.535156 8.234375 -4.546875 L 8 -4.703125 C 7.65625 -4.921875 7.316406 -5.066406 6.984375 -5.140625 C 6.898438 -5.160156 6.828125 -5.144531 6.765625 -5.09375 C 6.703125 -5.050781 6.625 -4.953125 6.53125 -4.796875 L 2.90625 0.84375 C 2.863281 0.90625 2.851562 0.976562 2.875 1.0625 C 2.90625 1.144531 2.953125 1.207031 3.015625 1.25 L 5.03125 2.546875 C 5.332031 2.734375 5.738281 2.742188 6.25 2.578125 C 6.394531 2.535156 6.578125 2.472656 6.796875 2.390625 C 7.015625 2.316406 7.144531 2.269531 7.1875 2.25 C 7.332031 2.25 7.378906 2.289062 7.328125 2.375 C 7.316406 2.394531 7.304688 2.40625 7.296875 2.40625 L 5.546875 3.421875 C 5.472656 3.472656 5.414062 3.484375 5.375 3.453125 Z M 0.25 0.15625 "/></g></g></g><g fill="#000000" fill-opacity="1"><g transform="translate(140.829381, 272.385359)"><g><path d="M 7.296875 2.65625 C 6.898438 2.707031 6.484375 2.703125 6.046875 2.640625 C 5.617188 2.585938 5.257812 2.492188 4.96875 2.359375 C 4.363281 2.085938 3.828125 1.738281 3.359375 1.3125 C 2.734375 0.695312 2.304688 0.0234375 2.078125 -0.703125 C 1.796875 -1.640625 1.882812 -2.632812 2.34375 -3.6875 C 2.6875 -4.445312 3.1875 -5.050781 3.84375 -5.5 C 4.5 -5.945312 5.25 -6.195312 6.09375 -6.25 C 6.945312 -6.3125 7.765625 -6.164062 8.546875 -5.8125 C 9.335938 -5.46875 9.96875 -4.984375 10.4375 -4.359375 C 10.90625 -3.734375 11.191406 -3.03125 11.296875 -2.25 C 11.398438 -1.46875 11.296875 -0.71875 10.984375 0 C 10.671875 0.707031 10.1875 1.296875 9.53125 1.765625 C 8.875 2.242188 8.128906 2.539062 7.296875 2.65625 Z M 3.578125 -3.34375 C 3.316406 -2.738281 3.191406 -2.070312 3.203125 -1.34375 C 3.210938 -0.625 3.382812 0.0351562 3.71875 0.640625 C 4.050781 1.253906 4.550781 1.707031 5.21875 2 C 6.15625 2.414062 7.050781 2.375 7.90625 1.875 C 8.664062 1.425781 9.269531 0.695312 9.71875 -0.3125 C 10.164062 -1.332031 10.257812 -2.332031 10 -3.3125 C 9.875 -3.789062 9.648438 -4.226562 9.328125 -4.625 C 9.015625 -5.03125 8.648438 -5.328125 8.234375 -5.515625 C 7.816406 -5.703125 7.453125 -5.804688 7.140625 -5.828125 C 6.835938 -5.847656 6.539062 -5.828125 6.25 -5.765625 C 5.957031 -5.703125 5.675781 -5.597656 5.40625 -5.453125 C 5.144531 -5.304688 4.90625 -5.125 4.6875 -4.90625 C 4.21875 -4.476562 3.847656 -3.957031 3.578125 -3.34375 Z M 3.578125 -3.34375 "/></g></g></g><g fill="#000000" fill-opacity="1"><g transform="translate(157.230457, 278.916159)"><g><path d="M 0.296875 0.078125 C 0.265625 0.0664062 0.257812 0.0195312 0.28125 -0.0625 L 0.296875 -0.125 C 0.304688 -0.15625 0.328125 -0.164062 0.359375 -0.15625 C 0.378906 -0.144531 0.414062 -0.132812 0.46875 -0.125 C 0.53125 -0.125 0.585938 -0.117188 0.640625 -0.109375 C 0.703125 -0.109375 0.753906 -0.109375 0.796875 -0.109375 C 0.847656 -0.109375 0.882812 -0.101562 0.90625 -0.09375 C 1.332031 -0.0820312 1.59375 -0.257812 1.6875 -0.625 L 3.296875 -6.8125 C 3.378906 -7.144531 3.300781 -7.414062 3.0625 -7.625 C 2.914062 -7.75 2.753906 -7.835938 2.578125 -7.890625 L 2.359375 -7.9375 C 2.328125 -7.945312 2.320312 -7.972656 2.34375 -8.015625 L 2.375 -8.140625 C 2.382812 -8.171875 2.410156 -8.179688 2.453125 -8.171875 L 5.6875 -7.421875 L 6.28125 -7.265625 C 6.957031 -7.035156 7.46875 -6.632812 7.8125 -6.0625 C 8.164062 -5.488281 8.253906 -4.867188 8.078125 -4.203125 C 7.910156 -3.546875 7.503906 -3.101562 6.859375 -2.875 C 6.648438 -2.800781 6.4375 -2.742188 6.21875 -2.703125 L 7.21875 0.640625 C 7.40625 1.234375 7.734375 1.703125 8.203125 2.046875 C 8.234375 2.066406 8.242188 2.097656 8.234375 2.140625 C 8.203125 2.242188 8.125 2.28125 8 2.25 C 7.125 2.019531 6.507812 1.5 6.15625 0.6875 C 6.09375 0.507812 6.023438 0.316406 5.953125 0.109375 L 5.0625 -2.671875 L 3.6875 -3.09375 L 3.625 -3.109375 C 3.582031 -3.117188 3.554688 -3.09375 3.546875 -3.03125 L 2.84375 -0.34375 C 2.789062 -0.132812 2.804688 0.0351562 2.890625 0.171875 C 2.984375 0.316406 3.171875 0.445312 3.453125 0.5625 C 3.535156 0.59375 3.628906 0.632812 3.734375 0.6875 C 3.835938 0.738281 3.910156 0.769531 3.953125 0.78125 C 3.992188 0.789062 4.007812 0.8125 4 0.84375 L 3.96875 0.984375 C 3.957031 1.015625 3.9375 1.023438 3.90625 1.015625 Z M 5.125 -7.25 C 5.082031 -7.257812 5.035156 -7.269531 4.984375 -7.28125 C 4.929688 -7.289062 4.863281 -7.300781 4.78125 -7.3125 C 4.695312 -7.332031 4.648438 -7.3125 4.640625 -7.25 L 3.71875 -3.71875 L 3.671875 -3.53125 C 3.660156 -3.445312 3.6875 -3.390625 3.75 -3.359375 L 4.328125 -3.171875 C 5.421875 -2.890625 6.1875 -3.113281 6.625 -3.84375 C 6.769531 -4.0625 6.882812 -4.328125 6.96875 -4.640625 C 7.125 -5.265625 7.054688 -5.800781 6.765625 -6.25 C 6.472656 -6.707031 6.023438 -7.019531 5.421875 -7.1875 C 5.367188 -7.195312 5.316406 -7.207031 5.265625 -7.21875 C 5.222656 -7.226562 5.175781 -7.238281 5.125 -7.25 Z M 5.125 -7.25 "/></g></g></g><g fill="#000000" fill-opacity="1"><g transform="translate(172.353665, 282.297001)"><g><path d="M 0.046875 -0.046875 L 0.078125 -0.21875 C 0.078125 -0.25 0.09375 -0.257812 0.125 -0.25 L 0.25 -0.234375 C 0.425781 -0.234375 0.601562 -0.222656 0.78125 -0.203125 C 0.957031 -0.191406 1.117188 -0.191406 1.265625 -0.203125 C 1.585938 -0.273438 1.773438 -0.503906 1.828125 -0.890625 L 2.515625 -7.21875 C 2.554688 -7.613281 2.351562 -7.894531 1.90625 -8.0625 C 1.78125 -8.101562 1.648438 -8.140625 1.515625 -8.171875 L 1.390625 -8.1875 C 1.359375 -8.1875 1.34375 -8.207031 1.34375 -8.25 L 1.359375 -8.390625 C 1.359375 -8.421875 1.375 -8.4375 1.40625 -8.4375 L 7.125 -7.8125 C 7.195312 -7.800781 7.25 -7.78125 7.28125 -7.75 C 7.3125 -7.71875 7.328125 -7.65625 7.328125 -7.5625 L 7.25 -5.8125 C 7.238281 -5.769531 7.203125 -5.753906 7.140625 -5.765625 C 7.085938 -5.773438 7.050781 -5.800781 7.03125 -5.84375 C 7 -5.875 6.976562 -6.015625 6.96875 -6.265625 C 6.957031 -6.523438 6.910156 -6.742188 6.828125 -6.921875 C 6.753906 -7.109375 6.585938 -7.238281 6.328125 -7.3125 L 3.828125 -7.578125 C 3.773438 -7.585938 3.75 -7.566406 3.75 -7.515625 L 3.40625 -4.40625 C 3.40625 -4.363281 3.425781 -4.335938 3.46875 -4.328125 L 5.546875 -4.109375 C 6.085938 -4.046875 6.390625 -4.328125 6.453125 -4.953125 C 6.460938 -4.992188 6.484375 -5.015625 6.515625 -5.015625 L 6.65625 -5 C 6.6875 -4.988281 6.695312 -4.960938 6.6875 -4.921875 L 6.40625 -2.359375 C 6.40625 -2.328125 6.390625 -2.316406 6.359375 -2.328125 L 6.21875 -2.34375 C 6.1875 -2.34375 6.171875 -2.359375 6.171875 -2.390625 C 6.234375 -2.984375 6.09375 -3.34375 5.75 -3.46875 C 5.664062 -3.5 5.570312 -3.519531 5.46875 -3.53125 L 3.40625 -3.75 C 3.363281 -3.757812 3.335938 -3.742188 3.328125 -3.703125 L 3.015625 -0.796875 C 2.984375 -0.492188 3.101562 -0.304688 3.375 -0.234375 C 3.445312 -0.210938 3.53125 -0.195312 3.625 -0.1875 L 5.625 0.03125 C 6.039062 0.0703125 6.382812 -0.0703125 6.65625 -0.40625 C 6.84375 -0.644531 6.96875 -0.929688 7.03125 -1.265625 C 7.050781 -1.378906 7.117188 -1.429688 7.234375 -1.421875 C 7.273438 -1.421875 7.296875 -1.394531 7.296875 -1.34375 L 6.890625 0.671875 C 6.847656 0.722656 6.8125 0.75 6.78125 0.75 L 0.09375 0.015625 C 0.0625 0.00390625 0.046875 -0.015625 0.046875 -0.046875 Z M 0.046875 -0.046875 "/></g></g></g><g fill="#000000" fill-opacity="1"><g transform="translate(186.810617, 283.336978)"><g/></g></g><g fill="#000000" fill-opacity="1"><g transform="translate(197.080402, 283.09575)"><g><path d="M 1.96875 -8.703125 C 1.488281 -8.628906 1.28125 -8.414062 1.34375 -8.0625 C 1.351562 -7.988281 1.375 -7.914062 1.40625 -7.84375 C 1.445312 -7.769531 1.488281 -7.691406 1.53125 -7.609375 L 4.71875 -2.484375 C 4.726562 -2.453125 4.753906 -2.4375 4.796875 -2.4375 C 4.847656 -2.445312 4.890625 -2.476562 4.921875 -2.53125 L 5.734375 -5.828125 L 4.109375 -8.46875 C 4.015625 -8.625 3.6875 -8.742188 3.125 -8.828125 C 2.96875 -8.847656 2.863281 -8.851562 2.8125 -8.84375 C 2.769531 -8.832031 2.75 -8.847656 2.75 -8.890625 L 2.71875 -9.03125 C 2.71875 -9.0625 2.734375 -9.082031 2.765625 -9.09375 L 8.21875 -9.96875 C 8.257812 -9.976562 8.28125 -9.96875 8.28125 -9.9375 L 8.3125 -9.796875 C 8.3125 -9.753906 8.289062 -9.726562 8.25 -9.71875 L 8.03125 -9.6875 C 7.65625 -9.625 7.398438 -9.394531 7.265625 -9 C 7.210938 -8.863281 7.164062 -8.703125 7.125 -8.515625 L 6.65625 -6.578125 L 8.765625 -3.125 C 8.785156 -3.101562 8.816406 -3.09375 8.859375 -3.09375 C 8.898438 -3.101562 8.9375 -3.132812 8.96875 -3.1875 L 10.53125 -9.53125 C 10.550781 -9.644531 10.554688 -9.738281 10.546875 -9.8125 C 10.515625 -9.988281 10.273438 -10.039062 9.828125 -9.96875 L 9.453125 -9.90625 C 9.421875 -9.90625 9.40625 -9.925781 9.40625 -9.96875 L 9.375 -10.109375 C 9.375 -10.140625 9.390625 -10.15625 9.421875 -10.15625 L 12.078125 -10.59375 C 12.109375 -10.59375 12.125 -10.578125 12.125 -10.546875 L 12.15625 -10.40625 C 12.15625 -10.363281 12.140625 -10.34375 12.109375 -10.34375 L 11.828125 -10.296875 C 11.648438 -10.265625 11.53125 -10.1875 11.46875 -10.0625 C 11.40625 -9.9375 11.320312 -9.664062 11.21875 -9.25 L 9.3125 -1.546875 C 9.269531 -1.453125 9.226562 -1.390625 9.1875 -1.359375 C 9.144531 -1.328125 9.082031 -1.304688 9 -1.296875 L 8.71875 -1.25 C 8.625 -1.226562 8.550781 -1.257812 8.5 -1.34375 L 6.25 -4.984375 L 5.25 -0.890625 C 5.21875 -0.796875 5.179688 -0.734375 5.140625 -0.703125 C 5.097656 -0.671875 5.03125 -0.648438 4.9375 -0.640625 L 4.65625 -0.59375 C 4.550781 -0.570312 4.476562 -0.601562 4.4375 -0.6875 L 0.03125 -7.8125 C -0.0507812 -7.945312 -0.265625 -8.046875 -0.609375 -8.109375 C -0.960938 -8.171875 -1.175781 -8.195312 -1.25 -8.1875 C -1.332031 -8.175781 -1.375 -8.191406 -1.375 -8.234375 L -1.40625 -8.375 C -1.40625 -8.40625 -1.390625 -8.421875 -1.359375 -8.421875 L 2.046875 -8.96875 C 2.078125 -8.976562 2.09375 -8.96875 2.09375 -8.9375 L 2.125 -8.796875 C 2.125 -8.753906 2.109375 -8.726562 2.078125 -8.71875 Z M 6.5 -9.140625 C 6.476562 -9.316406 6.289062 -9.382812 5.9375 -9.34375 C 5.59375 -9.269531 5.410156 -9.117188 5.390625 -8.890625 C 5.390625 -8.835938 5.394531 -8.773438 5.40625 -8.703125 C 5.414062 -8.640625 5.4375 -8.570312 5.46875 -8.5 C 5.507812 -8.4375 5.550781 -8.359375 5.59375 -8.265625 L 6.109375 -7.421875 L 6.46875 -8.875 C 6.5 -8.988281 6.507812 -9.078125 6.5 -9.140625 Z M 6.5 -9.140625 "/></g></g></g><g fill="#000000" fill-opacity="1"><g transform="translate(217.253961, 278.928005)"><g><path d="M -0.890625 -7.65625 C -1.035156 -8.113281 -1.375 -8.257812 -1.90625 -8.09375 C -1.988281 -8.0625 -2.035156 -8.066406 -2.046875 -8.109375 L -2.09375 -8.234375 C -2.101562 -8.265625 -2.09375 -8.285156 -2.0625 -8.296875 L 0.828125 -9.234375 C 0.847656 -9.242188 0.863281 -9.234375 0.875 -9.203125 L 0.921875 -9.078125 C 0.929688 -9.035156 0.851562 -8.984375 0.6875 -8.921875 C 0.519531 -8.867188 0.382812 -8.765625 0.28125 -8.609375 C 0.175781 -8.460938 0.175781 -8.222656 0.28125 -7.890625 L 2.28125 -1.75 C 2.425781 -1.28125 2.765625 -1.132812 3.296875 -1.3125 C 3.367188 -1.34375 3.410156 -1.34375 3.421875 -1.3125 L 3.46875 -1.1875 C 3.476562 -1.15625 3.472656 -1.132812 3.453125 -1.125 L 0.5625 -0.1875 C 0.53125 -0.175781 0.507812 -0.1875 0.5 -0.21875 L 0.453125 -0.34375 C 0.441406 -0.375 0.519531 -0.414062 0.6875 -0.46875 C 0.863281 -0.519531 1.003906 -0.625 1.109375 -0.78125 C 1.222656 -0.9375 1.222656 -1.1875 1.109375 -1.53125 Z M -0.890625 -7.65625 "/></g></g></g><g fill="#000000" fill-opacity="1"><g transform="translate(227.731774, 275.217415)"><g><path d="M 2.09375 -1.203125 C 2.082031 -1.234375 2.097656 -1.257812 2.140625 -1.28125 L 2.296875 -1.359375 C 2.648438 -1.523438 2.894531 -1.734375 3.03125 -1.984375 C 3.164062 -2.242188 3.1875 -2.476562 3.09375 -2.6875 L 0.203125 -8.71875 C 0.171875 -8.800781 0.132812 -8.835938 0.09375 -8.828125 C 0.0625 -8.816406 0.0234375 -8.804688 -0.015625 -8.796875 L -2.109375 -7.796875 C -2.421875 -7.566406 -2.519531 -7.207031 -2.40625 -6.71875 C -2.351562 -6.4375 -2.316406 -6.257812 -2.296875 -6.1875 C -2.273438 -6.125 -2.273438 -6.085938 -2.296875 -6.078125 L -2.40625 -6.03125 C -2.414062 -6.019531 -2.425781 -6.019531 -2.4375 -6.03125 L -2.515625 -6.203125 L -3.15625 -8 C -3.1875 -8.125 -3.175781 -8.195312 -3.125 -8.21875 C -3.070312 -8.238281 -2.992188 -8.226562 -2.890625 -8.1875 C -2.796875 -8.15625 -2.671875 -8.175781 -2.515625 -8.25 L 3.359375 -11.0625 C 3.523438 -11.132812 3.613281 -11.195312 3.625 -11.25 C 3.632812 -11.300781 3.644531 -11.347656 3.65625 -11.390625 C 3.664062 -11.441406 3.691406 -11.476562 3.734375 -11.5 C 3.785156 -11.519531 3.828125 -11.515625 3.859375 -11.484375 C 3.898438 -11.453125 3.925781 -11.414062 3.9375 -11.375 L 4.984375 -9.78125 L 5.0625 -9.609375 C 5.070312 -9.597656 5.0625 -9.585938 5.03125 -9.578125 L 4.953125 -9.53125 C 4.910156 -9.507812 4.867188 -9.523438 4.828125 -9.578125 C 4.609375 -9.898438 4.390625 -10.144531 4.171875 -10.3125 C 3.960938 -10.476562 3.726562 -10.53125 3.46875 -10.46875 L 1.375 -9.453125 C 1.320312 -9.421875 1.28125 -9.394531 1.25 -9.375 C 1.226562 -9.351562 1.234375 -9.300781 1.265625 -9.21875 L 4.15625 -3.1875 C 4.25 -2.976562 4.441406 -2.847656 4.734375 -2.796875 C 5.035156 -2.753906 5.363281 -2.816406 5.71875 -2.984375 L 5.890625 -3.078125 C 5.910156 -3.085938 5.925781 -3.078125 5.9375 -3.046875 L 6 -2.921875 C 6.007812 -2.890625 6.003906 -2.867188 5.984375 -2.859375 L 2.234375 -1.0625 C 2.191406 -1.039062 2.164062 -1.046875 2.15625 -1.078125 Z M 2.09375 -1.203125 "/></g></g></g><g fill="#000000" fill-opacity="1"><g transform="translate(241.981099, 267.848238)"><g><path d="M 6.609375 -5.921875 C 6.921875 -5.484375 7.394531 -5.460938 8.03125 -5.859375 C 8.0625 -5.878906 8.085938 -5.878906 8.109375 -5.859375 L 8.1875 -5.734375 C 8.207031 -5.710938 8.203125 -5.691406 8.171875 -5.671875 L 5 -3.46875 C 4.976562 -3.457031 4.957031 -3.460938 4.9375 -3.484375 L 4.859375 -3.609375 C 4.835938 -3.628906 4.910156 -3.695312 5.078125 -3.8125 C 5.242188 -3.925781 5.40625 -4.097656 5.5625 -4.328125 C 5.820312 -4.660156 5.863281 -4.953125 5.6875 -5.203125 L 4.046875 -7.578125 C 4.023438 -7.609375 4 -7.625 3.96875 -7.625 C 3.945312 -7.625 3.921875 -7.613281 3.890625 -7.59375 L -0.03125 -4.875 C -0.0625 -4.851562 -0.078125 -4.832031 -0.078125 -4.8125 C -0.078125 -4.800781 -0.0664062 -4.78125 -0.046875 -4.75 L 1.640625 -2.328125 C 1.910156 -1.921875 2.34375 -1.921875 2.9375 -2.328125 C 2.96875 -2.347656 2.992188 -2.347656 3.015625 -2.328125 L 3.09375 -2.203125 C 3.113281 -2.179688 3.109375 -2.160156 3.078125 -2.140625 L 0.328125 -0.234375 C 0.304688 -0.210938 0.285156 -0.210938 0.265625 -0.234375 L 0.1875 -0.359375 C 0.164062 -0.378906 0.1875 -0.414062 0.25 -0.46875 C 0.8125 -0.851562 0.929688 -1.285156 0.609375 -1.765625 L -3.078125 -7.078125 C -3.347656 -7.460938 -3.722656 -7.503906 -4.203125 -7.203125 C -4.265625 -7.148438 -4.3125 -7.140625 -4.34375 -7.171875 L -4.40625 -7.265625 C -4.414062 -7.285156 -4.410156 -7.304688 -4.390625 -7.328125 L -1.890625 -9.0625 C -1.867188 -9.070312 -1.851562 -9.066406 -1.84375 -9.046875 L -1.78125 -8.953125 C -1.757812 -8.929688 -1.78125 -8.898438 -1.84375 -8.859375 C -2.320312 -8.535156 -2.398438 -8.140625 -2.078125 -7.671875 L -0.484375 -5.375 C -0.460938 -5.34375 -0.441406 -5.320312 -0.421875 -5.3125 C -0.410156 -5.3125 -0.390625 -5.320312 -0.359375 -5.34375 L 3.5625 -8.0625 C 3.59375 -8.082031 3.613281 -8.101562 3.625 -8.125 C 3.632812 -8.144531 3.628906 -8.171875 3.609375 -8.203125 L 1.953125 -10.578125 C 1.929688 -10.597656 1.90625 -10.617188 1.875 -10.640625 C 1.851562 -10.671875 1.820312 -10.707031 1.78125 -10.75 C 1.6875 -10.84375 1.503906 -10.851562 1.234375 -10.78125 C 0.972656 -10.707031 0.707031 -10.585938 0.4375 -10.421875 C 0.414062 -10.398438 0.390625 -10.40625 0.359375 -10.4375 L 0.296875 -10.53125 C 0.285156 -10.550781 0.285156 -10.566406 0.296875 -10.578125 L 3.171875 -12.578125 C 3.203125 -12.597656 3.222656 -12.597656 3.234375 -12.578125 L 3.296875 -12.484375 C 3.316406 -12.460938 3.289062 -12.425781 3.21875 -12.375 C 2.726562 -12.039062 2.644531 -11.640625 2.96875 -11.171875 Z M 6.609375 -5.921875 "/></g></g></g><g fill="#000000" fill-opacity="1"><g transform="translate(255.728322, 257.459709)"><g/></g></g><g fill="#000000" fill-opacity="1"><g transform="translate(263.117058, 250.400324)"><g><path d="M -4.109375 -7.984375 C -4.546875 -7.460938 -4.5625 -7.03125 -4.15625 -6.6875 L -0.828125 -3.890625 C -0.222656 -3.378906 0.441406 -3.160156 1.171875 -3.234375 C 1.910156 -3.316406 2.539062 -3.675781 3.0625 -4.3125 C 3.625 -4.96875 3.898438 -5.65625 3.890625 -6.375 C 3.890625 -7.101562 3.578125 -7.726562 2.953125 -8.25 L 0 -10.734375 C -0.289062 -10.984375 -0.507812 -11.128906 -0.65625 -11.171875 C -1.070312 -11.285156 -1.476562 -11.113281 -1.875 -10.65625 C -1.894531 -10.625 -1.921875 -10.625 -1.953125 -10.65625 L -2.0625 -10.734375 C -2.082031 -10.753906 -2.082031 -10.78125 -2.0625 -10.8125 L -0.140625 -13.078125 C -0.117188 -13.097656 -0.0976562 -13.097656 -0.078125 -13.078125 L 0.03125 -13 C 0.0625 -12.96875 0.046875 -12.921875 -0.015625 -12.859375 C -0.347656 -12.453125 -0.398438 -12.078125 -0.171875 -11.734375 C -0.128906 -11.660156 -0.0859375 -11.609375 -0.046875 -11.578125 L 3 -9.03125 C 4.351562 -7.882812 4.789062 -6.632812 4.3125 -5.28125 C 4.144531 -4.820312 3.914062 -4.414062 3.625 -4.0625 C 2.582031 -2.832031 1.492188 -2.195312 0.359375 -2.15625 C -0.234375 -2.132812 -0.769531 -2.328125 -1.25 -2.734375 L -4.96875 -5.84375 C -5.226562 -6.070312 -5.53125 -6.054688 -5.875 -5.796875 C -5.988281 -5.722656 -6.070312 -5.65625 -6.125 -5.59375 C -6.175781 -5.53125 -6.21875 -5.515625 -6.25 -5.546875 L -6.359375 -5.625 C -6.378906 -5.644531 -6.378906 -5.664062 -6.359375 -5.6875 L -4.25 -8.203125 C -4.226562 -8.222656 -4.207031 -8.222656 -4.1875 -8.203125 L -4.078125 -8.125 C -4.046875 -8.09375 -4.054688 -8.046875 -4.109375 -7.984375 Z M -4.109375 -7.984375 "/></g></g></g><g fill="#000000" fill-opacity="1"><g transform="translate(273.567373, 236.963968)"><g><path d="M -4.5 -8.78125 C -4.476562 -8.820312 -4.4375 -8.820312 -4.375 -8.78125 L -3.1875 -8.21875 C -3.113281 -8.195312 -3.066406 -8.175781 -3.046875 -8.15625 C -3.023438 -8.144531 -3.03125 -8.113281 -3.0625 -8.0625 C -3.101562 -8.007812 -3.128906 -7.976562 -3.140625 -7.96875 C -3.160156 -7.96875 -3.191406 -7.972656 -3.234375 -7.984375 C -3.285156 -7.992188 -3.335938 -8 -3.390625 -8 C -3.441406 -8.007812 -3.492188 -8.019531 -3.546875 -8.03125 C -3.753906 -8.050781 -3.984375 -8.03125 -4.234375 -7.96875 C -4.828125 -7.8125 -5.269531 -7.5 -5.5625 -7.03125 C -5.738281 -6.75 -5.8125 -6.421875 -5.78125 -6.046875 C -5.75 -5.671875 -5.601562 -5.40625 -5.34375 -5.25 C -5.09375 -5.09375 -4.847656 -5.003906 -4.609375 -4.984375 C -4.367188 -4.972656 -4.117188 -5 -3.859375 -5.0625 C -3.609375 -5.125 -3.347656 -5.207031 -3.078125 -5.3125 C -2.816406 -5.414062 -2.550781 -5.53125 -2.28125 -5.65625 C -1.570312 -5.945312 -1.003906 -6.128906 -0.578125 -6.203125 C 0.0664062 -6.304688 0.65625 -6.207031 1.1875 -5.90625 C 1.769531 -5.550781 2.097656 -5.039062 2.171875 -4.375 C 2.242188 -3.71875 2.097656 -3.09375 1.734375 -2.5 C 1.492188 -2.125 1.265625 -1.847656 1.046875 -1.671875 C 0.835938 -1.492188 0.6875 -1.367188 0.59375 -1.296875 C 0.507812 -1.234375 0.453125 -1.179688 0.421875 -1.140625 C 0.398438 -1.097656 0.390625 -1.066406 0.390625 -1.046875 L 0.28125 -0.765625 C 0.257812 -0.722656 0.207031 -0.722656 0.125 -0.765625 C -0.789062 -1.191406 -1.273438 -1.421875 -1.328125 -1.453125 C -1.378906 -1.492188 -1.410156 -1.519531 -1.421875 -1.53125 C -1.429688 -1.550781 -1.421875 -1.582031 -1.390625 -1.625 C -1.335938 -1.71875 -1.148438 -1.722656 -0.828125 -1.640625 C 0.160156 -1.515625 0.914062 -1.875 1.4375 -2.71875 C 1.675781 -3.09375 1.765625 -3.488281 1.703125 -3.90625 C 1.640625 -4.320312 1.414062 -4.648438 1.03125 -4.890625 C 0.4375 -5.253906 -0.332031 -5.234375 -1.28125 -4.828125 C -1.5625 -4.722656 -1.941406 -4.554688 -2.421875 -4.328125 C -2.910156 -4.109375 -3.359375 -3.960938 -3.765625 -3.890625 C -4.378906 -3.785156 -4.929688 -3.882812 -5.421875 -4.1875 C -5.921875 -4.488281 -6.203125 -4.929688 -6.265625 -5.515625 C -6.335938 -6.097656 -6.21875 -6.644531 -5.90625 -7.15625 C -5.738281 -7.40625 -5.515625 -7.660156 -5.234375 -7.921875 C -4.953125 -8.191406 -4.765625 -8.378906 -4.671875 -8.484375 Z M -4.5 -8.78125 "/></g></g></g></svg>